<?xml version="1.0" standalone="no"?>
<!DOCTYPE svg PUBLIC "-//W3C//DTD SVG 20010904//EN"
 "http://www.w3.org/TR/2001/REC-SVG-20010904/DTD/svg10.dtd">
<svg version="1.0" xmlns="http://www.w3.org/2000/svg"
 width="360.000000pt" height="360.000000pt" viewBox="0 0 360.000000 360.000000"
 preserveAspectRatio="xMidYMid meet">

<g transform="translate(0.000000,360.000000) scale(0.100000,-0.100000)"
fill="#000000" stroke="none">
<path d="M1560 3564 c-761 -103 -1368 -685 -1512 -1451 -31 -169 -31 -457 0
-626 47 -248 161 -521 300 -717 86 -122 300 -336 422 -423 113 -80 339 -194
469 -237 51 -17 150 -42 220 -57 112 -24 149 -27 331 -27 220 -1 281 6 465 54
640 167 1134 681 1279 1331 136 612 -56 1246 -510 1679 -389 371 -929 546
-1464 474z m-179 -726 c0 -7 0 -80 1 -163 l1 -150 -357 -3 -356 -2 0 164 0
165 355 1 c280 0 355 -2 356 -12z m1337 -226 c94 -50 166 -138 266 -323 32
-58 86 -141 122 -184 77 -95 126 -186 153 -283 17 -63 20 -104 21 -332 l1
-261 -30 -29 -29 -30 -185 0 -184 0 -7 59 c-14 122 -106 246 -221 297 -147 64
-326 28 -430 -88 -51 -56 -95 -154 -98 -217 l-2 -51 -287 0 -288 0 0 28 c0 43
-26 129 -53 175 -35 60 -108 124 -175 154 -79 36 -210 38 -294 5 -120 -48
-226 -190 -231 -309 l-2 -53 -193 0 -194 0 -29 29 c-16 16 -29 38 -30 48 -1
10 -1 94 -1 188 l0 169 31 28 31 28 805 0 804 0 3 461 3 461 33 29 34 30 306
-3 c298 -3 308 -4 350 -26z m-848 -517 l0 -385 -670 0 -670 0 0 385 0 385 670
0 670 0 0 -385z m-594 -610 c177 -79 247 -281 159 -462 -65 -131 -229 -204
-375 -166 -142 36 -240 153 -253 303 -5 54 15 140 45 189 88 148 268 206 424
136z m1330 0 c216 -96 266 -377 98 -542 -116 -113 -284 -128 -421 -38 -91 60
-144 161 -145 275 -2 241 247 403 468 305z"/>
</g>
</svg>
